<svg width="32" height="32" viewBox="0 0 32 32" xmlns="http://www.w3.org/2000/svg">
  <!-- Red background circle -->
  <circle cx="16" cy="16" r="14" fill="#dc2626"/>
  
  <!-- White center circle -->
  <circle cx="16" cy="16" r="10" fill="white"/>
  
  <!-- Cross pattern - 4 arms with 3 lines each -->
  <!-- Top arm -->
  <g transform="translate(16, 4)">
    <rect x="-0.5" y="0" width="1" height="2" fill="#dc2626"/>
    <rect x="-0.5" y="3" width="1" height="2" fill="#dc2626"/>
    <rect x="-0.5" y="6" width="1" height="2" fill="#dc2626"/>
  </g>
  
  <!-- Right arm -->
  <g transform="translate(28, 16)">
    <rect x="0" y="-0.5" width="2" height="1" fill="#dc2626"/>
    <rect x="3" y="-0.5" width="2" height="1" fill="#dc2626"/>
    <rect x="6" y="-0.5" width="2" height="1" fill="#dc2626"/>
  </g>
  
  <!-- Bottom arm -->
  <g transform="translate(16, 28)">
    <rect x="-0.5" y="0" width="1" height="2" fill="#dc2626"/>
    <rect x="-0.5" y="3" width="1" height="2" fill="#dc2626"/>
    <rect x="-0.5" y="6" width="1" height="2" fill="#dc2626"/>
  </g>
  
  <!-- Left arm -->
  <g transform="translate(4, 16)">
    <rect x="0" y="-0.5" width="2" height="1" fill="#dc2626"/>
    <rect x="3" y="-0.5" width="2" height="1" fill="#dc2626"/>
    <rect x="6" y="-0.5" width="2" height="1" fill="#dc2626"/>
  </g>
</svg>
